<svg width="24" height="25" viewBox="0 0 24 25" fill="none" xmlns="http://www.w3.org/2000/svg">
<path d="M12 2.26758C6.62391 2.26758 2.25 6.64148 2.25 12.0176C2.25 17.3937 6.62391 21.7676 12 21.7676C17.3761 21.7676 21.75 17.3937 21.75 12.0176C21.75 6.64148 17.3761 2.26758 12 2.26758ZM9.64594 7.74352C10.2398 7.11398 11.0756 6.76758 12 6.76758C12.9244 6.76758 13.7527 7.11633 14.3489 7.74914C14.9531 8.39039 15.247 9.25195 15.1777 10.1782C15.0389 12.0176 13.6139 13.5176 12 13.5176C10.3861 13.5176 8.95828 12.0176 8.82234 10.1777C8.75344 9.24398 9.04688 8.37961 9.64594 7.74352ZM12 20.2676C10.8987 20.2683 9.80838 20.0479 8.79382 19.6193C7.77927 19.1908 6.86109 18.5629 6.09375 17.7729C6.53323 17.1462 7.0932 16.6133 7.74094 16.2054C8.93578 15.4395 10.448 15.0176 12 15.0176C13.552 15.0176 15.0642 15.4395 16.2577 16.2054C16.9059 16.6131 17.4664 17.146 17.9062 17.7729C17.139 18.563 16.2208 19.191 15.2062 19.6195C14.1917 20.048 13.1014 20.2684 12 20.2676Z" fill="#979797"/>
</svg>
