<svg width="24" height="25" viewBox="0 0 24 25" fill="none" xmlns="http://www.w3.org/2000/svg">
<path d="M12.2602 4.76508C12.1904 4.69832 12.0975 4.66106 12.0009 4.66106C11.9044 4.66106 11.8115 4.69832 11.7417 4.76508L3.11203 13.009C3.07538 13.044 3.04622 13.0862 3.02632 13.1328C3.00642 13.1795 2.99619 13.2297 2.99625 13.2804L2.99484 21.0176C2.99484 21.4154 3.15288 21.7969 3.43418 22.0782C3.71549 22.3595 4.09702 22.5176 4.49484 22.5176H8.99953C9.19844 22.5176 9.38921 22.4386 9.52986 22.2979C9.67051 22.1573 9.74953 21.9665 9.74953 21.7676V15.3926C9.74953 15.2931 9.78904 15.1977 9.85936 15.1274C9.92969 15.0571 10.0251 15.0176 10.1245 15.0176H13.8745C13.974 15.0176 14.0694 15.0571 14.1397 15.1274C14.21 15.1977 14.2495 15.2931 14.2495 15.3926V21.7676C14.2495 21.9665 14.3285 22.1573 14.4692 22.2979C14.6099 22.4386 14.8006 22.5176 14.9995 22.5176H19.5023C19.9002 22.5176 20.2817 22.3595 20.563 22.0782C20.8443 21.7969 21.0023 21.4154 21.0023 21.0176V13.2804C21.0024 13.2297 20.9922 13.1795 20.9723 13.1328C20.9524 13.0862 20.9232 13.044 20.8866 13.009L12.2602 4.76508Z" fill="#48AFFF"/>
<path d="M23.0109 11.4621L19.5047 8.10773V3.01758C19.5047 2.81867 19.4257 2.6279 19.285 2.48725C19.1444 2.3466 18.9536 2.26758 18.7547 2.26758H16.5047C16.3058 2.26758 16.115 2.3466 15.9744 2.48725C15.8337 2.6279 15.7547 2.81867 15.7547 3.01758V4.51758L13.0397 1.92164C12.7856 1.66477 12.4078 1.51758 11.9995 1.51758C11.5927 1.51758 11.2158 1.66477 10.9617 1.92211L0.991404 11.4612C0.699842 11.7424 0.663279 12.2051 0.928592 12.5098C0.995216 12.5867 1.07679 12.6492 1.16836 12.6936C1.25992 12.738 1.35956 12.7633 1.4612 12.7679C1.56285 12.7726 1.66438 12.7565 1.75961 12.7206C1.85484 12.6848 1.94179 12.63 2.01515 12.5595L11.7417 3.26508C11.8115 3.19832 11.9044 3.16106 12.0009 3.16106C12.0975 3.16106 12.1904 3.19832 12.2602 3.26508L21.9877 12.5595C22.1309 12.6969 22.3229 12.7719 22.5214 12.768C22.7199 12.7641 22.9087 12.6817 23.0466 12.5388C23.3344 12.2407 23.3105 11.7485 23.0109 11.4621Z" fill="#48AFFF"/>
</svg>
