<svg width="24" height="25" viewBox="0 0 24 25" fill="none" xmlns="http://www.w3.org/2000/svg">
<path d="M12 2.26758C6.61547 2.26758 2.25 6.63305 2.25 12.0176C2.25 17.4021 6.61547 21.7676 12 21.7676C17.3845 21.7676 21.75 17.4021 21.75 12.0176C21.75 6.63305 17.3845 2.26758 12 2.26758ZM7.78125 13.2363C7.5402 13.2363 7.30457 13.1649 7.10415 13.0309C6.90373 12.897 6.74752 12.7067 6.65527 12.484C6.56303 12.2613 6.53889 12.0162 6.58592 11.7798C6.63294 11.5434 6.74902 11.3262 6.91946 11.1558C7.08991 10.9853 7.30707 10.8693 7.54348 10.8222C7.7799 10.7752 8.02495 10.7994 8.24765 10.8916C8.47034 10.9838 8.66069 11.1401 8.7946 11.3405C8.92852 11.5409 9 11.7765 9 12.0176C9 12.3408 8.8716 12.6508 8.64304 12.8794C8.41448 13.1079 8.10448 13.2363 7.78125 13.2363ZM12 13.2363C11.759 13.2363 11.5233 13.1649 11.3229 13.0309C11.1225 12.897 10.9663 12.7067 10.874 12.484C10.7818 12.2613 10.7576 12.0162 10.8047 11.7798C10.8517 11.5434 10.9678 11.3262 11.1382 11.1558C11.3087 10.9853 11.5258 10.8693 11.7622 10.8222C11.9986 10.7752 12.2437 10.7994 12.4664 10.8916C12.6891 10.9838 12.8794 11.1401 13.0134 11.3405C13.1473 11.5409 13.2188 11.7765 13.2188 12.0176C13.2188 12.3408 13.0903 12.6508 12.8618 12.8794C12.6332 13.1079 12.3232 13.2363 12 13.2363ZM16.2188 13.2363C15.9777 13.2363 15.7421 13.1649 15.5416 13.0309C15.3412 12.897 15.185 12.7067 15.0928 12.484C15.0005 12.2613 14.9764 12.0162 15.0234 11.7798C15.0704 11.5434 15.1865 11.3262 15.357 11.1558C15.5274 10.9853 15.7446 10.8693 15.981 10.8222C16.2174 10.7752 16.4624 10.7994 16.6851 10.8916C16.9078 10.9838 17.0982 11.1401 17.2321 11.3405C17.366 11.5409 17.4375 11.7765 17.4375 12.0176C17.4375 12.3408 17.3091 12.6508 17.0805 12.8794C16.852 13.1079 16.542 13.2363 16.2188 13.2363Z" fill="#979797"/>
</svg>
