<svg width="25" height="25" viewBox="0 0 25 25" fill="none" xmlns="http://www.w3.org/2000/svg">
<path d="M21.1286 16.6239C21.0508 16.5302 20.9744 16.4364 20.8994 16.3459C19.8682 15.0986 19.2443 14.3458 19.2443 10.8147C19.2443 8.98656 18.8069 7.48656 17.9449 6.36156C17.3093 5.53047 16.45 4.9 15.3175 4.43406C15.303 4.42596 15.29 4.41532 15.2791 4.40266C14.8718 3.03859 13.7571 2.125 12.4999 2.125C11.2427 2.125 10.1285 3.03859 9.72114 4.40125C9.71027 4.41345 9.69744 4.42375 9.68318 4.43172C7.04036 5.51969 5.75599 7.60703 5.75599 10.8133C5.75599 14.3458 5.13302 15.0986 4.10083 16.3445C4.02583 16.435 3.94943 16.5269 3.87161 16.6225C3.67061 16.8649 3.54326 17.1598 3.50464 17.4723C3.46601 17.7848 3.51772 18.1019 3.65365 18.3859C3.94286 18.9953 4.55927 19.3736 5.26286 19.3736H19.7421C20.4424 19.3736 21.0546 18.9958 21.3447 18.3892C21.4813 18.1051 21.5335 17.7878 21.4952 17.4749C21.4569 17.162 21.3297 16.8667 21.1286 16.6239ZM12.4999 23.125C13.1773 23.1245 13.8418 22.9406 14.4232 22.5929C15.0045 22.2452 15.4809 21.7467 15.8018 21.1502C15.8169 21.1216 15.8244 21.0896 15.8234 21.0572C15.8225 21.0249 15.8133 20.9934 15.7966 20.9657C15.7799 20.938 15.7563 20.9151 15.7281 20.8992C15.7 20.8833 15.6682 20.875 15.6358 20.875H9.36489C9.33252 20.8749 9.30066 20.8832 9.27243 20.899C9.2442 20.9149 9.22055 20.9378 9.2038 20.9655C9.18704 20.9932 9.17774 21.0247 9.17681 21.0571C9.17588 21.0895 9.18335 21.1215 9.19849 21.1502C9.51936 21.7466 9.99567 22.2451 10.5769 22.5928C11.1581 22.9405 11.8226 23.1244 12.4999 23.125Z" fill="#979797"/>
</svg>
